<svg xmlns="http://www.w3.org/2000/svg" xmlns:xlink="http://www.w3.org/1999/xlink" width="300" zoomAndPan="magnify" viewBox="0 0 224.87999 187.499995" height="250" preserveAspectRatio="xMidYMid meet" version="1.0"><defs><clipPath id="392d3fbb7d"><path d="M 69.242188 50.011719 L 144.042969 50.011719 L 144.042969 124.8125 L 69.242188 124.8125 Z M 69.242188 50.011719 " clip-rule="nonzero"/></clipPath></defs><g clip-path="url(#392d3fbb7d)"><path fill="#20ab4b" d="M 144.046875 87.414062 C 144.046875 88.636719 143.984375 89.859375 143.863281 91.078125 C 143.746094 92.296875 143.566406 93.507812 143.328125 94.710938 C 143.085938 95.910156 142.789062 97.097656 142.433594 98.269531 C 142.078125 99.441406 141.667969 100.59375 141.199219 101.726562 C 140.730469 102.859375 140.207031 103.964844 139.628906 105.042969 C 139.050781 106.125 138.421875 107.175781 137.742188 108.191406 C 137.0625 109.210938 136.332031 110.195312 135.554688 111.140625 C 134.777344 112.089844 133.957031 112.996094 133.089844 113.859375 C 132.222656 114.726562 131.316406 115.546875 130.371094 116.324219 C 129.421875 117.101562 128.441406 117.832031 127.421875 118.511719 C 126.402344 119.191406 125.355469 119.820312 124.273438 120.398438 C 123.191406 120.976562 122.085938 121.5 120.957031 121.96875 C 119.824219 122.4375 118.671875 122.851562 117.5 123.207031 C 116.328125 123.5625 115.140625 123.859375 113.9375 124.097656 C 112.738281 124.335938 111.527344 124.515625 110.308594 124.636719 C 109.089844 124.757812 107.867188 124.816406 106.640625 124.816406 C 105.417969 124.816406 104.195312 124.757812 102.976562 124.636719 C 101.757812 124.515625 100.546875 124.335938 99.34375 124.097656 C 98.144531 123.859375 96.957031 123.5625 95.785156 123.207031 C 94.613281 122.851562 93.460938 122.4375 92.328125 121.96875 C 91.195312 121.5 90.089844 120.976562 89.007812 120.398438 C 87.929688 119.820312 86.878906 119.191406 85.859375 118.511719 C 84.84375 117.832031 83.859375 117.101562 82.914062 116.324219 C 81.964844 115.546875 81.058594 114.726562 80.191406 113.859375 C 79.328125 112.996094 78.503906 112.089844 77.726562 111.140625 C 76.949219 110.195312 76.222656 109.210938 75.542969 108.191406 C 74.859375 107.175781 74.230469 106.125 73.652344 105.042969 C 73.078125 103.964844 72.554688 102.859375 72.085938 101.726562 C 71.617188 100.59375 71.203125 99.441406 70.847656 98.269531 C 70.492188 97.097656 70.195312 95.910156 69.957031 94.710938 C 69.71875 93.507812 69.539062 92.296875 69.417969 91.078125 C 69.296875 89.859375 69.238281 88.636719 69.238281 87.414062 C 69.238281 86.1875 69.296875 84.964844 69.417969 83.746094 C 69.539062 82.527344 69.71875 81.316406 69.957031 80.113281 C 70.195312 78.914062 70.492188 77.726562 70.847656 76.554688 C 71.203125 75.382812 71.617188 74.230469 72.085938 73.097656 C 72.554688 71.964844 73.078125 70.859375 73.652344 69.78125 C 74.230469 68.699219 74.859375 67.648438 75.542969 66.632812 C 76.222656 65.613281 76.949219 64.628906 77.726562 63.683594 C 78.503906 62.738281 79.328125 61.828125 80.191406 60.964844 C 81.058594 60.097656 81.964844 59.277344 82.914062 58.5 C 83.859375 57.722656 84.84375 56.992188 85.859375 56.3125 C 86.878906 55.632812 87.929688 55.003906 89.007812 54.425781 C 90.089844 53.847656 91.195312 53.324219 92.328125 52.855469 C 93.460938 52.386719 94.613281 51.976562 95.785156 51.617188 C 96.957031 51.261719 98.144531 50.964844 99.34375 50.726562 C 100.546875 50.488281 101.757812 50.308594 102.976562 50.1875 C 104.195312 50.070312 105.417969 50.007812 106.640625 50.007812 C 107.867188 50.007812 109.089844 50.070312 110.308594 50.1875 C 111.527344 50.308594 112.738281 50.488281 113.9375 50.726562 C 115.140625 50.964844 116.328125 51.261719 117.5 51.617188 C 118.671875 51.976562 119.824219 52.386719 120.957031 52.855469 C 122.085938 53.324219 123.191406 53.847656 124.273438 54.425781 C 125.355469 55.003906 126.402344 55.632812 127.421875 56.3125 C 128.441406 56.992188 129.421875 57.722656 130.371094 58.5 C 131.316406 59.277344 132.222656 60.097656 133.089844 60.964844 C 133.957031 61.828125 134.777344 62.738281 135.554688 63.683594 C 136.332031 64.628906 137.0625 65.613281 137.742188 66.632812 C 138.421875 67.648438 139.050781 68.699219 139.628906 69.78125 C 140.207031 70.859375 140.730469 71.964844 141.199219 73.097656 C 141.667969 74.230469 142.078125 75.382812 142.433594 76.554688 C 142.789062 77.726562 143.085938 78.914062 143.328125 80.113281 C 143.566406 81.316406 143.746094 82.527344 143.863281 83.746094 C 143.984375 84.964844 144.046875 86.1875 144.046875 87.414062 Z M 144.046875 87.414062 " fill-opacity="1" fill-rule="nonzero"/></g><path fill="#ffffff" d="M 106.640625 110.394531 C 102.5625 110.402344 98.753906 109.386719 95.21875 107.359375 L 84.5 110.230469 L 87.292969 99.820312 C 86.835938 99.109375 86.421875 98.375 86.046875 97.617188 C 85.671875 96.863281 85.339844 96.089844 85.050781 95.296875 C 84.757812 94.503906 84.515625 93.695312 84.3125 92.875 C 84.113281 92.054688 83.957031 91.226562 83.847656 90.390625 C 83.738281 89.554688 83.675781 88.714844 83.660156 87.871094 C 83.640625 87.027344 83.671875 86.183594 83.746094 85.34375 C 83.824219 84.503906 83.945312 83.667969 84.113281 82.839844 C 84.28125 82.015625 84.492188 81.199219 84.75 80.394531 C 85.007812 79.589844 85.308594 78.804688 85.65625 78.03125 C 86 77.261719 86.382812 76.511719 86.8125 75.785156 C 87.238281 75.058594 87.703125 74.355469 88.207031 73.675781 C 88.710938 73 89.253906 72.351562 89.828125 71.734375 C 90.402344 71.117188 91.011719 70.535156 91.652344 69.984375 C 92.292969 69.433594 92.960938 68.921875 93.65625 68.445312 C 94.351562 67.964844 95.074219 67.53125 95.816406 67.132812 C 96.5625 66.734375 97.328125 66.378906 98.109375 66.066406 C 98.894531 65.753906 99.691406 65.484375 100.507812 65.257812 C 101.320312 65.035156 102.144531 64.851562 102.976562 64.71875 C 103.808594 64.585938 104.648438 64.496094 105.492188 64.453125 C 106.332031 64.410156 107.175781 64.414062 108.019531 64.464844 C 108.863281 64.515625 109.699219 64.613281 110.53125 64.757812 C 111.363281 64.898438 112.183594 65.085938 112.996094 65.320312 C 113.808594 65.554688 114.601562 65.832031 115.382812 66.152344 C 116.164062 66.472656 116.925781 66.835938 117.664062 67.242188 C 118.40625 67.644531 119.121094 68.089844 119.8125 68.574219 C 120.503906 69.058594 121.167969 69.578125 121.804688 70.136719 C 122.4375 70.691406 123.039062 71.28125 123.609375 71.90625 C 124.179688 72.527344 124.710938 73.179688 125.207031 73.863281 C 125.707031 74.542969 126.164062 75.25 126.585938 75.984375 C 127.003906 76.714844 127.382812 77.46875 127.71875 78.242188 C 128.054688 79.019531 128.347656 79.808594 128.597656 80.613281 C 128.847656 81.421875 129.050781 82.238281 129.210938 83.066406 C 129.371094 83.894531 129.484375 84.730469 129.550781 85.570312 C 129.621094 86.414062 129.640625 87.257812 129.617188 88.101562 C 129.589844 88.945312 129.519531 89.785156 129.402344 90.617188 C 129.28125 91.453125 129.121094 92.28125 128.910156 93.097656 C 128.703125 93.917969 128.449219 94.722656 128.152344 95.511719 C 127.855469 96.300781 127.515625 97.070312 127.132812 97.824219 C 126.75 98.578125 126.328125 99.304688 125.863281 100.011719 C 125.402344 100.71875 124.902344 101.398438 124.363281 102.046875 C 123.824219 102.699219 123.253906 103.316406 122.648438 103.90625 C 122.042969 104.492188 121.40625 105.046875 120.738281 105.5625 C 120.074219 106.082031 119.378906 106.5625 118.660156 107.003906 C 117.941406 107.445312 117.199219 107.84375 116.4375 108.203125 C 115.671875 108.5625 114.890625 108.878906 114.09375 109.15625 C 113.292969 109.429688 112.484375 109.65625 111.660156 109.839844 C 110.835938 110.027344 110.003906 110.164062 109.167969 110.257812 C 108.328125 110.351562 107.484375 110.394531 106.640625 110.394531 Z M 95.996094 102.113281 L 96.898438 102.691406 C 97.527344 103.09375 98.175781 103.453125 98.847656 103.773438 C 99.519531 104.09375 100.207031 104.371094 100.910156 104.605469 C 101.617188 104.839844 102.335938 105.03125 103.0625 105.179688 C 103.792969 105.328125 104.527344 105.429688 105.269531 105.484375 C 106.011719 105.542969 106.753906 105.550781 107.496094 105.515625 C 108.238281 105.480469 108.976562 105.402344 109.710938 105.277344 C 110.445312 105.152344 111.164062 104.980469 111.878906 104.765625 C 112.589844 104.550781 113.285156 104.292969 113.96875 103.992188 C 114.648438 103.691406 115.308594 103.351562 115.945312 102.96875 C 116.582031 102.589844 117.195312 102.167969 117.78125 101.710938 C 118.371094 101.253906 118.925781 100.765625 119.453125 100.238281 C 119.980469 99.714844 120.472656 99.15625 120.929688 98.570312 C 121.386719 97.984375 121.808594 97.375 122.191406 96.734375 C 122.574219 96.097656 122.914062 95.441406 123.214844 94.757812 C 123.519531 94.078125 123.777344 93.382812 123.992188 92.671875 C 124.207031 91.960938 124.378906 91.238281 124.507812 90.503906 C 124.632812 89.773438 124.714844 89.035156 124.75 88.292969 C 124.789062 87.550781 124.777344 86.808594 124.722656 86.066406 C 124.667969 85.324219 124.566406 84.585938 124.421875 83.859375 C 124.277344 83.128906 124.085938 82.410156 123.851562 81.707031 C 123.617188 81 123.339844 80.3125 123.023438 79.640625 C 122.703125 78.96875 122.34375 78.316406 121.945312 77.6875 C 121.546875 77.0625 121.109375 76.460938 120.636719 75.886719 C 120.164062 75.3125 119.660156 74.769531 119.121094 74.257812 C 118.578125 73.746094 118.011719 73.269531 117.414062 72.828125 C 116.8125 72.386719 116.191406 71.984375 115.542969 71.617188 C 114.894531 71.253906 114.226562 70.929688 113.539062 70.644531 C 112.851562 70.363281 112.148438 70.125 111.429688 69.925781 C 110.714844 69.730469 109.988281 69.578125 109.25 69.472656 C 108.515625 69.367188 107.773438 69.304688 107.03125 69.289062 C 106.289062 69.273438 105.546875 69.300781 104.804688 69.378906 C 104.066406 69.453125 103.332031 69.574219 102.609375 69.738281 C 101.882812 69.90625 101.171875 70.117188 100.472656 70.367188 C 99.773438 70.621094 99.089844 70.917969 98.429688 71.253906 C 97.765625 71.589844 97.125 71.96875 96.507812 72.382812 C 95.894531 72.800781 95.304688 73.253906 94.742188 73.742188 C 94.183594 74.230469 93.652344 74.75 93.15625 75.304688 C 92.660156 75.855469 92.199219 76.4375 91.773438 77.050781 C 91.347656 77.660156 90.960938 78.292969 90.617188 78.953125 C 90.269531 79.609375 89.964844 80.285156 89.699219 80.980469 C 89.433594 81.675781 89.214844 82.386719 89.039062 83.109375 C 88.863281 83.832031 88.730469 84.5625 88.644531 85.300781 C 88.558594 86.039062 88.515625 86.78125 88.519531 87.523438 C 88.527344 88.265625 88.574219 89.007812 88.671875 89.746094 C 88.765625 90.484375 88.90625 91.210938 89.09375 91.933594 C 89.277344 92.652344 89.507812 93.359375 89.78125 94.050781 C 90.054688 94.742188 90.367188 95.414062 90.722656 96.070312 C 91.078125 96.722656 91.472656 97.351562 91.902344 97.957031 L 92.574219 98.890625 L 91.378906 103.351562 Z M 95.996094 102.113281 " fill-opacity="1" fill-rule="nonzero"/><path fill="#20ab4b" d="M 106.640625 66.859375 C 105.703125 66.859375 104.765625 66.925781 103.835938 67.054688 C 102.902344 67.179688 101.984375 67.371094 101.082031 67.628906 C 100.175781 67.882812 99.292969 68.195312 98.429688 68.570312 C 97.570312 68.949219 96.738281 69.378906 95.933594 69.871094 C 95.132812 70.359375 94.367188 70.902344 93.640625 71.496094 C 92.910156 72.089844 92.226562 72.734375 91.585938 73.421875 C 90.949219 74.109375 90.355469 74.839844 89.816406 75.609375 C 89.277344 76.378906 88.792969 77.179688 88.363281 78.015625 C 87.933594 78.851562 87.5625 79.714844 87.25 80.601562 C 86.941406 81.488281 86.691406 82.390625 86.503906 83.3125 C 86.316406 84.234375 86.191406 85.164062 86.132812 86.101562 C 86.070312 87.039062 86.074219 87.976562 86.144531 88.914062 C 86.214844 89.851562 86.34375 90.78125 86.542969 91.699219 C 86.738281 92.621094 86.996094 93.523438 87.316406 94.40625 C 87.636719 95.289062 88.015625 96.148438 88.453125 96.980469 C 88.890625 97.8125 89.382812 98.609375 89.929688 99.375 L 87.941406 106.792969 L 95.589844 104.742188 C 96.261719 105.171875 96.953125 105.558594 97.667969 105.90625 C 98.382812 106.25 99.117188 106.554688 99.867188 106.816406 C 100.617188 107.078125 101.382812 107.296875 102.15625 107.472656 C 102.933594 107.644531 103.714844 107.773438 104.507812 107.855469 C 105.296875 107.9375 106.089844 107.972656 106.886719 107.964844 C 107.679688 107.957031 108.472656 107.898438 109.261719 107.796875 C 110.050781 107.699219 110.828125 107.550781 111.601562 107.359375 C 112.371094 107.167969 113.128906 106.929688 113.875 106.652344 C 114.617188 106.371094 115.34375 106.050781 116.050781 105.6875 C 116.757812 105.320312 117.441406 104.917969 118.101562 104.476562 C 118.761719 104.03125 119.394531 103.550781 119.996094 103.035156 C 120.601562 102.519531 121.175781 101.96875 121.714844 101.386719 C 122.253906 100.800781 122.761719 100.191406 123.230469 99.546875 C 123.699219 98.90625 124.128906 98.238281 124.523438 97.546875 C 124.914062 96.855469 125.265625 96.144531 125.574219 95.414062 C 125.882812 94.679688 126.148438 93.933594 126.371094 93.167969 C 126.59375 92.40625 126.773438 91.632812 126.90625 90.847656 C 127.039062 90.066406 127.125 89.277344 127.167969 88.480469 C 127.207031 87.6875 127.203125 86.894531 127.152344 86.101562 C 127.101562 85.308594 127.003906 84.519531 126.863281 83.738281 C 126.722656 82.957031 126.535156 82.183594 126.300781 81.421875 C 126.070312 80.664062 125.796875 79.917969 125.476562 79.191406 C 125.160156 78.460938 124.800781 77.753906 124.398438 77.066406 C 124 76.378906 123.5625 75.71875 123.085938 75.082031 C 122.605469 74.445312 122.09375 73.839844 121.546875 73.261719 C 121 72.6875 120.421875 72.144531 119.8125 71.632812 C 119.199219 71.125 118.5625 70.652344 117.898438 70.214844 C 117.234375 69.78125 116.542969 69.386719 115.832031 69.03125 C 115.121094 68.675781 114.394531 68.359375 113.644531 68.089844 C 112.898438 67.820312 112.136719 67.59375 111.363281 67.410156 C 110.589844 67.226562 109.808594 67.089844 109.019531 66.996094 C 108.230469 66.90625 107.4375 66.859375 106.640625 66.859375 Z M 106.640625 66.859375 " fill-opacity="1" fill-rule="nonzero"/><path fill="#ffffff" d="M 118.289062 96.570312 C 118.667969 95.648438 118.855469 93.808594 117.894531 93.253906 C 117.179688 92.839844 116.320312 92.578125 115.5625 92.257812 C 114.695312 91.886719 113.832031 91.4375 112.9375 91.136719 C 111.683594 90.710938 110.886719 91.820312 110.074219 92.589844 C 109.898438 92.757812 109.523438 93.273438 109.253906 93.332031 C 108.914062 93.40625 108.390625 92.957031 108.105469 92.785156 C 107.578125 92.472656 107.066406 92.132812 106.570312 91.769531 C 105.015625 90.632812 103.660156 89.292969 102.503906 87.753906 C 101.941406 87.011719 101.308594 86.175781 100.933594 85.316406 C 100.683594 84.746094 101.027344 84.570312 101.414062 84.160156 C 102.199219 83.328125 103.40625 82.472656 102.988281 81.195312 C 102.710938 80.351562 102.277344 79.527344 101.925781 78.710938 C 101.578125 77.898438 101.289062 77.019531 100.871094 76.242188 C 100.328125 75.222656 98.847656 75.402344 97.929688 75.707031 C 97.503906 75.828125 97.117188 76.03125 96.773438 76.304688 C 96.222656 76.796875 95.777344 77.371094 95.433594 78.023438 C 94.214844 80.136719 94.601562 83.351562 95.769531 85.375 C 97.414062 88.230469 98.894531 91.035156 101.300781 93.359375 C 103.652344 95.632812 106.613281 97.34375 109.535156 98.792969 C 110.917969 99.480469 112.5 99.359375 113.996094 99.324219 C 115.535156 99.285156 117.679688 98.078125 118.289062 96.570312 Z M 118.289062 96.570312 " fill-opacity="1" fill-rule="nonzero"/></svg>